<?xml version="1.0" standalone="no"?><!DOCTYPE svg PUBLIC "-//W3C//DTD SVG 1.1//EN" "http://www.w3.org/Graphics/SVG/1.1/DTD/svg11.dtd"><svg width="100%" height="100%" viewBox="0 0 320 81" version="1.1" xmlns="http://www.w3.org/2000/svg" xmlns:xlink="http://www.w3.org/1999/xlink" xml:space="preserve" style="fill-rule:evenodd;clip-rule:evenodd;stroke-linejoin:round;stroke-miterlimit:1.41421;"><g><g><path d="M62.166,40.475l0.942,0.067c0,0 5.617,9.61 7.287,17.714c1.372,6.663 1.204,10.502 -3.231,12.666c-4.435,2.164 -8.693,1.194 -12.886,-0.554c-1.979,-0.825 -5.244,-8.37 -5.244,-8.37c0,0 5.787,2.832 10.051,2.443c4.264,-0.389 6.223,-0.198 7.736,-2.948c1.514,-2.749 1.477,-6.448 0.261,-9.665c-1.216,-3.216 -4.916,-11.353 -4.916,-11.353l0,0Z" style="fill:url(#_Linear1);"/><path d="M50.937,27.397c0,0 7.751,-0.16 11.703,0.754c4.422,1.022 8.721,2.471 10.757,4.961c1,1.223 1.235,2.818 0.818,5.036c-0.41,2.185 -1.834,3.871 -3.772,5.54c-1.939,1.669 -9.207,6.338 -9.207,6.338c0,0 5.448,-0.037 7.021,-0.371c3.05,-0.646 8.581,-2.203 12.734,-6.462c3.518,-3.606 3.166,-8.84 -0.491,-11.44c-6.434,-4.573 -14.03,-4.881 -17.945,-5.382c-3.914,-0.5 -11.782,0.204 -11.782,0.204l0.164,0.822Z" style="fill:url(#_Linear2);"/><path d="M34.636,30.615c0,0 8.29,-13.076 11.508,-16.424c3.218,-3.347 6.81,-7.443 12.139,-6.951c5.328,0.492 7.527,2.907 9.481,5.951c1.954,3.045 2.269,7.155 1.734,8.926c-0.535,1.77 -6.114,7.952 -6.114,7.952l1.99,-3.582l-2.54,-1.337c0,0 -0.069,-4.85 -1.542,-7.179c-1.473,-2.329 -2.87,-4.307 -7.052,-3.689c-4.182,0.617 -9.104,3.599 -11.519,6.438c-2.415,2.839 -8.085,9.895 -8.085,9.895l0,0Z" style="fill:url(#_Linear3);"/><path d="M28.513,38.633c0,0 -3.363,-6.416 -5.814,-12.221c-2.781,-6.583 -3.242,-14.411 1.526,-17c4.523,-2.458 8.524,-1.135 11.231,-0.436c2.117,0.548 3.738,1.7 4.376,3.019c0.639,1.319 0.661,5.238 0.661,5.238c0,0 -5.493,-2.512 -8.879,-2.263c-3.387,0.249 -6.393,2.084 -6.539,5.96c-0.143,3.763 0.5,7.66 1.527,11.192c1.015,3.488 2.391,5.994 2.391,5.994l-0.48,0.517l0,0Z" style="fill:url(#_Linear4);"/><path d="M45.343,53.417c0,0 -12.962,1.99 -24.515,0.852c-2.81,-0.277 -10.563,-2.225 -12.451,-7.401c-2.166,-5.933 0.859,-8.843 2.735,-10.413c2.128,-1.781 7.323,-4.656 9.38,-4.309c2.277,0.384 5.687,3.159 5.687,3.159c0,0 -7.094,2.128 -8.991,6.139c-0.853,1.804 -0.322,3.51 1.301,5.274c2.115,2.297 6.301,3.832 11.322,5.272c5.021,1.439 15.532,1.427 15.532,1.427l0,0Z" style="fill:url(#_Linear5);"/><path d="M54.212,49.287l-0.044,1.306c0,0 -8.114,13.976 -14.209,17.851c-6.095,3.874 -10.552,5.349 -13.652,2.806c-3.481,-2.854 -4.892,-6.851 -4.733,-9.256c0.309,-4.677 1.859,-9.52 1.859,-9.52c0,0 0.528,6.601 5.542,9.927c5.014,3.326 5.885,4.127 9.826,2.684c3.94,-1.443 8.649,-5.662 10.053,-7.572c1.404,-1.911 5.358,-8.226 5.358,-8.226l0,0Z" style="fill:url(#_Linear6);"/><path d="M49.192,39.382c0,0 0.976,2.584 -0.735,3.805c-1.712,1.22 -4.434,1.708 -5.251,0.38c-0.817,-1.328 -1.258,-3.198 -0.462,-5.209c0.794,-2.012 2.528,-2.772 3.63,-2.721c1.101,0.049 1.028,0.065 1.52,1.185c0.492,1.119 1.028,1.35 0.007,2.034c-1.02,0.685 -1.776,0.805 -1.504,1.528c0.272,0.723 0.804,1.256 1.303,0.85c0.499,-0.406 0.975,-1.555 0.967,-1.775c-0.007,-0.22 0.525,-0.077 0.525,-0.077Z" style="fill:#bcc1d4;"/></g><g><path d="M100.654,6.824l1.461,0l6.257,14.839l-2.218,0l-1.502,-3.731l-6.589,0l-1.491,3.731l-2.175,0l6.257,-14.839l0,0ZM103.97,16.226l-2.601,-6.502l-2.613,6.502l5.214,0Z" style="fill:#747889;fill-rule:nonzero;"/><path d="M114.267,19.978c0.234,0.086 0.59,0.129 1.066,0.129c0.476,0 0.874,-0.057 1.194,-0.171l0,1.706c-0.149,0.035 -0.366,0.056 -0.651,0.063l-0.671,0.022c-0.149,0 -0.263,0 -0.342,0c-1.371,0 -2.383,-0.448 -3.037,-1.344c-0.526,-0.724 -0.789,-1.684 -0.789,-2.878l0,-5.213l-1.578,0l0,-1.002l1.578,-0.629l0.511,-2.728l1.621,0l0,2.728l3.411,0l0,1.631l-3.411,0l0,5.203c0,1.393 0.366,2.221 1.098,2.483l0,0Z" style="fill:#747889;fill-rule:nonzero;"/><path d="M118.69,16.141c0,-1.727 0.551,-3.127 1.653,-4.2c1.03,-1.002 2.306,-1.503 3.827,-1.503c1.492,0 2.74,0.501 3.742,1.503c1.065,1.066 1.598,2.466 1.598,4.2c0,1.727 -0.536,3.12 -1.609,4.179c-1.016,1.008 -2.264,1.513 -3.742,1.513c-1.499,0 -2.772,-0.505 -3.816,-1.513c-1.102,-1.059 -1.653,-2.452 -1.653,-4.179l0,0ZM120.908,16.141c0,1.819 0.583,3.056 1.748,3.709c0.412,0.228 0.906,0.342 1.482,0.342c0.575,0 1.062,-0.116 1.46,-0.346c0.398,-0.232 0.725,-0.535 0.981,-0.912c0.476,-0.725 0.714,-1.656 0.714,-2.793c0,-1.805 -0.572,-3.042 -1.716,-3.71c-0.398,-0.234 -0.874,-0.352 -1.429,-0.352c-0.554,0 -1.036,0.116 -1.444,0.347c-0.409,0.231 -0.744,0.535 -1.007,0.912c-0.526,0.739 -0.789,1.673 -0.789,2.803l0,0Z" style="fill:#747889;fill-rule:nonzero;"/><path d="M134.308,13.401l0.01,8.262l-2.132,0l0,-11.002l1.962,0l0.149,1.205c0.781,-0.654 1.691,-1.08 2.728,-1.279c0.335,-0.064 0.662,-0.096 0.982,-0.096c1.329,0 2.331,0.562 3.006,1.685c1.236,-1.123 2.529,-1.685 3.879,-1.685c1.336,0 2.31,0.402 2.921,1.205c0.612,0.817 0.917,2.167 0.917,4.05l0,5.917l-2.132,0l0,-5.842c0,-1.847 -0.444,-2.952 -1.332,-3.315c-0.299,-0.121 -0.647,-0.181 -1.045,-0.181c-0.952,0 -1.826,0.341 -2.622,1.023l0,8.315l-2.132,0l0,-5.927c0,-1.265 -0.188,-2.154 -0.565,-2.665c-0.362,-0.498 -1.011,-0.746 -1.945,-0.746c-0.935,0 -1.818,0.358 -2.649,1.076l0,0Z" style="fill:#747889;fill-rule:nonzero;"/></g><g><path d="M94.422,28.191l9.93,0c6.62,0 10.886,1.961 12.796,5.883c0.687,1.44 1.031,3.15 1.031,5.128c0,1.977 -0.352,3.67 -1.056,5.078c-0.703,1.408 -1.65,2.564 -2.841,3.47c-2.312,1.742 -5.405,2.614 -9.276,2.614l-5.556,0l0,12.821l-5.028,0l0,-34.994l0,0ZM104.025,46.341c3.034,0 5.28,-0.586 6.738,-1.759c1.458,-1.174 2.187,-3 2.187,-5.48c0,-3.302 -1.533,-5.431 -4.6,-6.386c-1.073,-0.336 -2.372,-0.503 -3.897,-0.503l-5.003,0l0,14.128l4.575,0Z" style="fill:#bcc1d4;fill-rule:nonzero;"/><path d="M129.002,31.899c-0.629,0.511 -1.413,0.766 -2.351,0.766c-0.938,0 -1.714,-0.255 -2.325,-0.766c-0.612,-0.512 -0.918,-1.249 -0.918,-2.213c0,-0.963 0.306,-1.696 0.918,-2.199c0.611,-0.503 1.387,-0.755 2.325,-0.755c0.938,0 1.722,0.252 2.351,0.755c0.628,0.503 0.942,1.236 0.942,2.199c0,0.964 -0.314,1.701 -0.942,2.213ZM124.062,37.241l5.028,0l0,25.944l-5.028,0l0,-25.944l0,0Z" style="fill:#bcc1d4;fill-rule:nonzero;"/><path d="M151.74,73.09c-1.458,0.368 -3.331,0.553 -5.619,0.553c-2.287,0 -3.959,-0.168 -5.015,-0.503l0,-4.475c1.324,0.57 2.946,0.859 4.864,0.867c1.919,0.009 3.332,-0.121 4.237,-0.389c0.905,-0.268 1.617,-0.704 2.137,-1.307c0.938,-1.09 1.407,-3.059 1.407,-5.908l0,-1.333c-1.273,1.274 -2.95,2.162 -5.027,2.665c-0.839,0.201 -1.677,0.302 -2.514,0.302c-0.838,0 -1.655,-0.093 -2.451,-0.276c-0.797,-0.185 -1.589,-0.483 -2.376,-0.893c-0.788,-0.411 -1.542,-0.947 -2.263,-1.609c-0.72,-0.662 -1.357,-1.487 -1.911,-2.476c-1.239,-2.145 -1.86,-4.785 -1.86,-7.919c-0.033,-2.899 0.805,-5.447 2.514,-7.642c1.475,-1.911 3.503,-3.394 6.084,-4.45c2.346,-0.972 4.885,-1.458 7.617,-1.458c2.732,0 5.137,0.134 7.215,0.402l0,24.687c0,6.268 -2.346,9.989 -7.039,11.162l0,0ZM153.751,40.912c-1.073,-0.135 -2.128,-0.202 -3.167,-0.202c-1.039,0 -2.204,0.193 -3.495,0.578c-1.29,0.386 -2.421,0.972 -3.393,1.76c-2.129,1.727 -3.193,4.173 -3.193,7.341c0,3.435 0.829,5.941 2.488,7.516c1.241,1.19 2.758,1.785 4.551,1.785c2.162,0 3.98,-0.762 5.455,-2.287c0.352,-0.386 0.603,-0.73 0.754,-1.031l0,-15.46l0,0Z" style="fill:#bcc1d4;fill-rule:nonzero;"/><path d="M172.128,43.702l0.025,19.483l-5.027,0l0,-25.944l4.625,0l0.352,2.841c1.844,-1.542 3.989,-2.548 6.436,-3.017c0.787,-0.151 1.558,-0.226 2.313,-0.226c3.134,0 5.497,1.324 7.089,3.972c2.916,-2.648 5.966,-3.972 9.151,-3.972c3.151,0 5.446,0.947 6.888,2.841c1.441,1.927 2.162,5.111 2.162,9.553l0,13.952l-5.028,0l0,-13.776c0,-4.358 -1.047,-6.964 -3.142,-7.819c-0.704,-0.285 -1.525,-0.428 -2.464,-0.428c-2.246,0 -4.307,0.805 -6.184,2.414l0,19.609l-5.028,0l0,-13.978c0,-2.983 -0.445,-5.078 -1.333,-6.284c-0.854,-1.174 -2.384,-1.761 -4.588,-1.761c-2.204,0 -4.286,0.847 -6.247,2.54l0,0Z" style="fill:#bcc1d4;fill-rule:nonzero;"/><path d="M226.329,63.587c-9.486,0 -14.229,-4.634 -14.229,-13.902c0,-3.989 1.316,-7.182 3.947,-9.578c2.363,-2.179 5.061,-3.268 8.095,-3.268c3.301,0 5.882,1.106 7.743,3.318c1.726,2.061 2.589,4.818 2.589,8.271l0,1.961l-17.145,0c0,4.743 1.936,7.642 5.807,8.698c0.922,0.252 2.342,0.377 4.261,0.377c1.919,0 3.801,-0.259 5.644,-0.779l0,4.248c-1.843,0.436 -4.081,0.654 -6.712,0.654ZM229.446,46.694c0,-1.61 -0.444,-2.967 -1.332,-4.073c-1.039,-1.274 -2.472,-1.911 -4.299,-1.911c-1.928,0 -3.495,0.612 -4.701,1.835c-1.106,1.14 -1.659,2.522 -1.659,4.149l11.991,0Z" style="fill:#bcc1d4;fill-rule:nonzero;"/><path d="M251.67,41.162c-2.497,0 -4.718,0.847 -6.662,2.54l0,19.483l-5.028,0l0,-25.944l4.651,0l0.352,2.816c2.732,-2.145 5.556,-3.218 8.472,-3.218c3.084,0 5.347,0.921 6.788,2.765c1.508,1.944 2.262,5.078 2.262,9.402l0,14.179l-5.028,0l0,-14.179c0,-4.156 -1.122,-6.637 -3.368,-7.441c-0.721,-0.268 -1.534,-0.403 -2.439,-0.403l0,0Z" style="fill:#bcc1d4;fill-rule:nonzero;"/><path d="M279.348,59.213c0.553,0.201 1.391,0.302 2.514,0.302c1.123,0 2.061,-0.134 2.815,-0.403l0,4.023c-0.352,0.083 -0.863,0.134 -1.533,0.151l-1.584,0.05c-0.352,0 -0.62,0 -0.804,0c-3.235,0 -5.623,-1.056 -7.165,-3.168c-1.24,-1.709 -1.861,-3.972 -1.861,-6.787l0,-12.294l-3.72,0l0,-2.363l3.72,-1.483l1.207,-6.436l3.821,0l0,6.436l8.045,0l0,3.846l-8.045,0l0,12.268c0,3.285 0.863,5.237 2.59,5.858l0,0Z" style="fill:#bcc1d4;fill-rule:nonzero;"/><path d="M297.825,63.587c-2.094,0 -4.214,-0.15 -6.36,-0.452l0,-4.45c2.179,0.52 4.391,0.779 6.637,0.779c4.492,0 6.737,-0.946 6.737,-2.84c0,-0.721 -0.176,-1.258 -0.527,-1.61c-0.52,-0.552 -1.341,-1.106 -2.464,-1.659l-3.67,-1.684c-2.38,-1.19 -3.922,-2.145 -4.626,-2.866c-1.324,-1.341 -1.986,-2.932 -1.986,-4.777c0,-2.077 0.964,-3.771 2.891,-5.077c2.078,-1.408 4.994,-2.112 8.749,-2.112c1.893,0 3.804,0.134 5.731,0.402l0,4.299c-2.111,-0.386 -3.951,-0.578 -5.518,-0.578c-1.567,0 -2.782,0.1 -3.645,0.301c-0.863,0.201 -1.513,0.453 -1.949,0.755c-0.687,0.469 -1.03,1.076 -1.03,1.822c0,0.746 0.239,1.349 0.716,1.81c0.478,0.461 1.228,0.96 2.25,1.496l3.696,1.784c2.413,1.258 3.964,2.221 4.651,2.892c1.307,1.274 1.961,2.874 1.961,4.802c0,2.061 -1.039,3.72 -3.118,4.977c-2.179,1.324 -5.221,1.986 -9.126,1.986Z" style="fill:#bcc1d4;fill-rule:nonzero;"/></g></g><defs><linearGradient id="_Linear1" x1="0" y1="0" x2="1" y2="0" gradientUnits="userSpaceOnUse" gradientTransform="matrix(-90.3626,90.7584,-90.7584,-90.3626,73.0843,42.5722)"><stop offset="0%" style="stop-color:#f66;stop-opacity:1"/><stop offset="28%" style="stop-color:#ff69fe;stop-opacity:1"/><stop offset="40%" style="stop-color:#6766fe;stop-opacity:1"/><stop offset="50%" style="stop-color:#00fffe;stop-opacity:1"/><stop offset="66%" style="stop-color:#00ff01;stop-opacity:1"/><stop offset="82%" style="stop-color:#ff0;stop-opacity:1"/><stop offset="100%" style="stop-color:#f00;stop-opacity:1"/></linearGradient><linearGradient id="_Linear2" x1="0" y1="0" x2="1" y2="0" gradientUnits="userSpaceOnUse" gradientTransform="matrix(-2.31642,52.083,-52.083,-2.31642,71.0328,-5.62452)"><stop offset="0%" style="stop-color:#f00;stop-opacity:1"/><stop offset="16%" style="stop-color:#ff00fe;stop-opacity:1"/><stop offset="21%" style="stop-color:#0100ff;stop-opacity:1"/><stop offset="27%" style="stop-color:#00fffe;stop-opacity:1"/><stop offset="32%" style="stop-color:#00ff01;stop-opacity:1"/><stop offset="56%" style="stop-color:#ffff65;stop-opacity:1"/><stop offset="100%" style="stop-color:#ff6969;stop-opacity:1"/></linearGradient><linearGradient id="_Linear3" x1="0" y1="0" x2="1" y2="0" gradientUnits="userSpaceOnUse" gradientTransform="matrix(85.5259,5.9858,-5.9858,85.5259,5.59204,8.90857)"><stop offset="0%" style="stop-color:#f00;stop-opacity:1"/><stop offset="16%" style="stop-color:#ff00fe;stop-opacity:1"/><stop offset="22%" style="stop-color:#0100ff;stop-opacity:1"/><stop offset="27%" style="stop-color:#00fffe;stop-opacity:1"/><stop offset="32%" style="stop-color:#6ef66e;stop-opacity:1"/><stop offset="74%" style="stop-color:#f9f96c;stop-opacity:1"/><stop offset="100%" style="stop-color:#ff6464;stop-opacity:1"/></linearGradient><linearGradient id="_Linear4" x1="0" y1="0" x2="1" y2="0" gradientUnits="userSpaceOnUse" gradientTransform="matrix(59.8359,-61.7494,61.7494,59.8359,-4.64437,67.1655)"><stop offset="0%" style="stop-color:#ff6969;stop-opacity:1"/><stop offset="16%" style="stop-color:#ff00fe;stop-opacity:1"/><stop offset="25%" style="stop-color:#0100ff;stop-opacity:1"/><stop offset="40%" style="stop-color:#6ff;stop-opacity:1"/><stop offset="65%" style="stop-color:#6ffe70;stop-opacity:1"/><stop offset="91%" style="stop-color:#ffff65;stop-opacity:1"/><stop offset="100%" style="stop-color:#f00;stop-opacity:1"/></linearGradient><linearGradient id="_Linear5" x1="0" y1="0" x2="1" y2="0" gradientUnits="userSpaceOnUse" gradientTransform="matrix(-7.59935,-75.7361,75.7361,-7.59935,17.9867,83.7371)"><stop offset="0%" style="stop-color:#f00;stop-opacity:1"/><stop offset="6%" style="stop-color:#ff00fe;stop-opacity:1"/><stop offset="16%" style="stop-color:#6a69ff;stop-opacity:1"/><stop offset="54%" style="stop-color:#71f4f3;stop-opacity:1"/><stop offset="78%" style="stop-color:#6afd6b;stop-opacity:1"/><stop offset="84%" style="stop-color:#ff0;stop-opacity:1"/><stop offset="100%" style="stop-color:#f00;stop-opacity:1"/></linearGradient><linearGradient id="_Linear6" x1="0" y1="0" x2="1" y2="0" gradientUnits="userSpaceOnUse" gradientTransform="matrix(-118.836,-32.6906,32.6906,-118.836,72.7705,58.453)"><stop offset="0%" style="stop-color:#ff6868;stop-opacity:1"/><stop offset="17%" style="stop-color:#ff68fe;stop-opacity:1"/><stop offset="38%" style="stop-color:#6463ff;stop-opacity:1"/><stop offset="49%" style="stop-color:#68ffff;stop-opacity:1"/><stop offset="66%" style="stop-color:#00ff01;stop-opacity:1"/><stop offset="82%" style="stop-color:#ff0;stop-opacity:1"/><stop offset="100%" style="stop-color:#f00;stop-opacity:1"/></linearGradient></defs></svg>