<?xml version="1.0" standalone="no"?><!DOCTYPE svg PUBLIC "-//W3C//DTD SVG 1.1//EN" "http://www.w3.org/Graphics/SVG/1.1/DTD/svg11.dtd"><svg width="100%" height="100%" viewBox="0 0 512 512" version="1.1" xmlns="http://www.w3.org/2000/svg" xmlns:xlink="http://www.w3.org/1999/xlink" xml:space="preserve" style="fill-rule:evenodd;clip-rule:evenodd;stroke-linejoin:round;stroke-miterlimit:1.41421;"><g id="Calque1"><g><path d="M363.189,261.532l6.10235,0.432973c0,0 56.407,70.2789 67.2225,122.796c8.89177,43.1758 7.80818,68.0563 -20.9346,82.0817c-28.7428,14.0254 -76.3378,-0.260296 -103.506,-11.5869c-12.8263,-5.34743 -33.9839,-54.2442 -33.9839,-54.2442c0,0 37.4999,18.3539 65.1328,15.8326c27.6328,-2.5213 40.3275,-1.28026 50.1375,-19.1016c9.81003,-17.8213 9.5687,-41.7903 1.68623,-62.6332c-7.88246,-20.8429 -31.857,-73.5773 -31.857,-73.5773Z" style="fill:url(#tag1);"/><path d="M290.42,176.776c0,0 50.2255,-1.03646 75.8403,4.88479c28.659,6.62495 44.5131,17.0132 57.7079,33.1548c6.47955,7.92658 8.00937,18.2635 5.30758,32.634c-2.66188,14.1583 -11.8849,25.0876 -24.4482,35.9021c-12.5632,10.8145 -47.6664,40.0778 -47.6664,40.0778c0,0 35.3111,-0.24713 45.5016,-2.40564c19.762,-4.18594 55.6073,-14.2824 82.5232,-41.8794c22.7942,-23.3711 20.5144,-57.2875 -3.18568,-74.1353c-41.6922,-29.6379 -90.9199,-31.6336 -116.287,-34.8782c-25.3674,-3.2446 -76.3614,1.31572 -76.3614,1.31572l1.06832,5.32932Z" style="fill:url(#tag2);"/><path d="M184.778,197.633c0,0 53.7224,-102.743 74.5782,-124.435c20.8558,-21.6924 44.1311,-48.2415 78.6656,-45.0529c34.5345,3.18861 48.784,18.8435 61.4442,38.5726c12.6601,19.7291 14.7025,46.3649 11.2357,57.8401c-3.46681,11.4752 -39.6169,69.5355 -39.6169,69.5355l12.8958,-23.2176l-16.4595,-8.66149c0,0 -0.452989,-31.4316 -9.9998,-46.5218c-9.54681,-15.0903 -18.5961,-27.9103 -45.6969,-23.9087c-27.1008,4.00158 -58.9985,23.323 -74.6515,41.7237c-15.653,18.4007 -52.3949,64.126 -52.3949,64.126Z" style="fill:url(#tag3);"/><path d="M145.098,249.592c0,0 -28.79,-46.5821 -44.6789,-84.1975c-18.0211,-42.6631 -21.0109,-93.3894 9.88944,-110.172c29.3171,-15.9229 55.2391,-7.35554 72.7833,-2.81984c13.7209,3.54726 31.2257,16.0116 35.363,24.5608c4.13726,8.54925 4.28499,33.9441 4.28499,33.9441c0,0 -35.6002,-16.2757 -57.5479,-14.6639c-21.9477,1.61188 -41.4246,13.5063 -42.3741,38.6241c-0.921994,24.389 3.24036,49.6432 9.89865,72.5282c6.57841,22.6105 20.4923,31.8482 20.4923,31.8482l-8.1107,10.3479Z" style="fill:url(#tag4);"/><path d="M254.168,345.402c0,0 -84.0063,12.8988 -158.873,5.52349c-18.2072,-1.79361 -68.4522,-14.4241 -80.6921,-47.9637c-14.033,-38.4532 5.56614,-57.3099 17.7266,-67.4828c13.7942,-11.5397 47.4598,-30.1743 60.7887,-27.9262c14.7587,2.48933 36.8526,20.4713 36.8526,20.4713c0,0 -33.973,8.79441 -46.2628,34.7834c-5.52968,11.6936 -2.08689,22.748 8.43397,34.1807c13.6965,14.8837 40.8292,24.8353 73.3685,34.1629c32.5393,9.3276 88.6578,14.251 88.6578,14.251Z" style="fill:url(#tag5);"/><path d="M311.642,318.636l6.71721,8.46704c0,0 -57.586,105.565 -97.0851,130.678c-39.4991,25.1129 -68.3798,34.6661 -88.4743,18.1898c-22.5596,-18.4975 -31.699,-44.4016 -30.6711,-59.9854c1.99923,-30.3107 10.0488,-76.6995 10.0488,-76.6995c0,0 3.41967,42.785 35.9118,64.3392c32.4921,21.5542 38.1427,26.7412 63.6777,17.3909c25.535,-9.35029 56.0554,-36.6936 65.1519,-49.0732c9.09644,-12.3796 34.723,-53.3067 34.723,-53.3067Z" style="fill:url(#tag6);"/><path d="M283.194,247.001c0,0 9.55399,25.2836 -7.1929,37.2243c-16.7469,11.9407 -43.3845,16.7201 -51.3762,3.72491c-7.99168,-12.9952 -12.3066,-31.2893 -4.52836,-50.9702c7.77828,-19.6809 24.7386,-27.1174 35.5181,-26.6264c10.7796,0.490924 10.0689,0.6361 14.8811,11.595c4.81224,10.9589 10.0513,13.2129 0.0704803,19.912c-9.98079,6.69911 -17.3832,7.86816 -14.7206,14.9436c2.66259,7.07542 7.86442,12.2865 12.7491,8.31706c4.88467,-3.96942 9.53637,-15.2167 9.46589,-17.3695c-0.0704803,-2.15281 5.13331,-0.750713 5.13331,-0.750713Z" style="fill:#bcc1d4;"/></g></g><defs><linearGradient id="tag1" x1="0" y1="0" x2="1" y2="0" gradientUnits="userSpaceOnUse" gradientTransform="matrix(-585.6,588.164,-588.164,-585.6,433.945,275.122)"><stop offset="0%" style="stop-color:#f66;stop-opacity:1"/><stop offset="28%" style="stop-color:#ff69fe;stop-opacity:1"/><stop offset="40%" style="stop-color:#6766fe;stop-opacity:1"/><stop offset="50%" style="stop-color:#00fffe;stop-opacity:1"/><stop offset="66%" style="stop-color:#00ff01;stop-opacity:1"/><stop offset="82%" style="stop-color:#ff0;stop-opacity:1"/><stop offset="100%" style="stop-color:#f00;stop-opacity:1"/></linearGradient><linearGradient id="tag2" x1="0" y1="0" x2="1" y2="0" gradientUnits="userSpaceOnUse" gradientTransform="matrix(-15.0117,337.528,-337.528,-15.0117,420.652,-37.2203)"><stop offset="0%" style="stop-color:#f00;stop-opacity:1"/><stop offset="16%" style="stop-color:#ff00fe;stop-opacity:1"/><stop offset="21%" style="stop-color:#0100ff;stop-opacity:1"/><stop offset="27%" style="stop-color:#00fffe;stop-opacity:1"/><stop offset="32%" style="stop-color:#00ff01;stop-opacity:1"/><stop offset="56%" style="stop-color:#ffff65;stop-opacity:1"/><stop offset="100%" style="stop-color:#ff6969;stop-opacity:1"/></linearGradient><linearGradient id="tag3" x1="0" y1="0" x2="1" y2="0" gradientUnits="userSpaceOnUse" gradientTransform="matrix(554.256,38.7914,-38.7914,554.256,-3.44179,56.9624)"><stop offset="0%" style="stop-color:#f00;stop-opacity:1"/><stop offset="16%" style="stop-color:#ff00fe;stop-opacity:1"/><stop offset="22%" style="stop-color:#0100ff;stop-opacity:1"/><stop offset="27%" style="stop-color:#00fffe;stop-opacity:1"/><stop offset="32%" style="stop-color:#6ef66e;stop-opacity:1"/><stop offset="74%" style="stop-color:#f9f96c;stop-opacity:1"/><stop offset="100%" style="stop-color:#ff6464;stop-opacity:1"/></linearGradient><linearGradient id="tag4" x1="0" y1="0" x2="1" y2="0" gradientUnits="userSpaceOnUse" gradientTransform="matrix(387.768,-400.17,400.17,387.768,-69.7793,434.499)"><stop offset="0%" style="stop-color:#ff6969;stop-opacity:1"/><stop offset="16%" style="stop-color:#ff00fe;stop-opacity:1"/><stop offset="25%" style="stop-color:#0100ff;stop-opacity:1"/><stop offset="40%" style="stop-color:#6ff;stop-opacity:1"/><stop offset="65%" style="stop-color:#6ffe70;stop-opacity:1"/><stop offset="91%" style="stop-color:#ffff65;stop-opacity:1"/><stop offset="100%" style="stop-color:#f00;stop-opacity:1"/></linearGradient><linearGradient id="tag5" x1="0" y1="0" x2="1" y2="0" gradientUnits="userSpaceOnUse" gradientTransform="matrix(-49.248,-490.812,490.812,-49.248,76.8828,541.891)"><stop offset="0%" style="stop-color:#f00;stop-opacity:1"/><stop offset="6%" style="stop-color:#ff00fe;stop-opacity:1"/><stop offset="16%" style="stop-color:#6a69ff;stop-opacity:1"/><stop offset="54%" style="stop-color:#71f4f3;stop-opacity:1"/><stop offset="78%" style="stop-color:#6afd6b;stop-opacity:1"/><stop offset="84%" style="stop-color:#ff0;stop-opacity:1"/><stop offset="100%" style="stop-color:#f00;stop-opacity:1"/></linearGradient><linearGradient id="tag6" x1="0" y1="0" x2="1" y2="0" gradientUnits="userSpaceOnUse" gradientTransform="matrix(-770.125,-211.854,236.393,-690.181,431.912,378.036)"><stop offset="0%" style="stop-color:#ff6868;stop-opacity:1"/><stop offset="17%" style="stop-color:#ff68fe;stop-opacity:1"/><stop offset="38%" style="stop-color:#6463ff;stop-opacity:1"/><stop offset="49%" style="stop-color:#68ffff;stop-opacity:1"/><stop offset="66%" style="stop-color:#00ff01;stop-opacity:1"/><stop offset="82%" style="stop-color:#ff0;stop-opacity:1"/><stop offset="100%" style="stop-color:#f00;stop-opacity:1"/></linearGradient></defs></svg>