<?xml version="1.0" standalone="no"?>
<!DOCTYPE svg PUBLIC "-//W3C//DTD SVG 1.1//EN" "http://www.w3.org/Graphics/SVG/1.1/DTD/svg11.dtd">
<svg width="100%" height="100%" viewBox="0 0 1334 334" version="1.1" xmlns="http://www.w3.org/2000/svg" xmlns:xlink="http://www.w3.org/1999/xlink" xml:space="preserve" style="fill-rule:evenodd;clip-rule:evenodd;stroke-linejoin:round;stroke-miterlimit:1.41421;">
    <g transform="matrix(4.16667,0,0,4.16667,-0,-0)">
        <g>
            <g transform="matrix(0.50381,0,0,0.50381,-7.21423,-13.1733)">
                <path d="M137.773,106.526L139.643,106.658C139.643,106.658 150.799,125.743 154.114,141.836C156.838,155.067 156.506,162.691 147.698,166.989C138.891,171.287 130.435,169.36 122.109,165.889C118.179,164.251 111.695,149.267 111.695,149.267C111.695,149.267 123.187,154.891 131.654,154.119C140.122,153.346 144.012,153.726 147.018,148.265C150.024,142.804 149.95,135.459 147.535,129.072C145.12,122.685 137.773,106.526 137.773,106.526Z" style="fill:url(#_Linear1);"/>
                <path d="M115.474,80.554C115.474,80.554 130.865,80.236 138.714,82.051C147.496,84.081 156.032,86.958 160.075,91.904C162.061,94.333 162.529,97.5 161.701,101.904C160.886,106.243 158.059,109.592 154.21,112.906C150.36,116.22 135.926,125.493 135.926,125.493C135.926,125.493 146.746,125.418 149.869,124.756C155.925,123.473 166.909,120.38 175.157,111.923C182.142,104.761 181.443,94.368 174.181,89.205C161.405,80.123 146.32,79.512 138.546,78.517C130.773,77.523 115.147,78.921 115.147,78.921L115.474,80.554Z" style="fill:url(#_Linear2);"/>
                <path d="M83.102,86.945C83.102,86.945 99.564,60.977 105.955,54.329C112.346,47.682 119.478,39.547 130.061,40.524C140.643,41.501 145.01,46.298 148.889,52.344C152.769,58.389 153.395,66.551 152.332,70.068C151.27,73.584 140.192,85.86 140.192,85.86L144.144,78.746L139.1,76.091C139.1,76.091 138.962,66.46 136.036,61.835C133.111,57.211 130.338,53.283 122.033,54.509C113.728,55.735 103.954,61.656 99.157,67.295C94.361,72.933 83.102,86.945 83.102,86.945Z" style="fill:url(#_Linear3);"/>
                <path d="M70.942,102.867C70.942,102.867 64.265,90.125 59.396,78.598C53.874,65.525 52.958,49.98 62.426,44.838C71.41,39.958 79.354,42.584 84.73,43.973C88.934,45.06 92.153,47.348 93.421,49.968C94.689,52.587 94.734,60.369 94.734,60.369C94.734,60.369 83.825,55.382 77.1,55.876C70.374,56.37 64.406,60.014 64.115,67.711C63.832,75.185 65.108,82.924 67.148,89.937C69.164,96.865 71.895,101.841 71.895,101.841L70.942,102.867Z" style="fill:url(#_Linear4);"/>
                <path d="M104.365,132.226C104.365,132.226 78.623,136.179 55.681,133.919C50.101,133.369 34.705,129.499 30.954,119.221C26.654,107.438 32.66,101.66 36.386,98.542C40.613,95.006 50.929,89.296 55.014,89.985C59.536,90.748 66.307,96.258 66.307,96.258C66.307,96.258 52.219,100.485 48.453,108.449C46.758,112.032 47.813,115.42 51.037,118.923C55.235,123.484 63.549,126.533 73.52,129.392C83.491,132.25 104.365,132.226 104.365,132.226Z" style="fill:url(#_Linear5);"/>
                <path d="M121.977,124.025L121.89,126.619C121.89,126.619 105.776,154.372 93.672,162.067C81.568,169.762 72.718,172.69 66.561,167.641C59.648,161.973 56.847,154.035 57.162,149.259C57.775,139.971 60.854,130.353 60.854,130.353C60.854,130.353 61.902,143.463 71.859,150.068C81.816,156.673 83.547,158.263 91.372,155.397C99.197,152.532 108.549,144.153 111.337,140.36C114.124,136.566 121.977,124.025 121.977,124.025Z" style="fill:url(#_Linear6);"/>
                <path d="M112.008,104.355C112.008,104.355 113.947,109.486 110.548,111.91C107.149,114.333 101.743,115.303 100.121,112.666C98.499,110.028 97.623,106.315 99.202,102.321C100.78,98.326 104.223,96.817 106.411,96.917C108.598,97.016 108.454,97.046 109.431,99.27C110.408,101.494 111.471,101.952 109.445,103.311C107.419,104.671 105.917,104.908 106.457,106.344C106.998,107.78 108.054,108.838 109.045,108.032C110.036,107.227 110.981,104.944 110.966,104.507C110.952,104.07 112.008,104.355 112.008,104.355Z" style="fill:rgb(188,193,212);"/>
            </g>
            <g transform="matrix(0.599225,0,0,0.599225,-31.2296,-17.0323)">
                <path d="M220.174,39.818L222.613,39.818L233.06,64.593L229.358,64.593L226.849,58.364L215.849,58.364L213.358,64.593L209.727,64.593L220.174,39.818ZM225.71,55.516L221.367,44.659L217.006,55.516L225.71,55.516Z" style="fill:rgb(116,120,137);fill-rule:nonzero;"/>
                <path d="M242.903,61.781C243.294,61.923 243.888,61.995 244.683,61.995C245.478,61.995 246.142,61.9 246.676,61.71L246.676,64.558C246.427,64.617 246.065,64.652 245.59,64.664L244.469,64.7C244.22,64.7 244.03,64.7 243.899,64.7C241.609,64.7 239.919,63.952 238.827,62.457C237.949,61.247 237.51,59.645 237.51,57.652L237.51,48.948L234.876,48.948L234.876,47.275L237.51,46.225L238.364,41.669L241.07,41.669L241.07,46.225L246.765,46.225L246.765,48.948L241.07,48.948L241.07,57.634C241.07,59.96 241.681,61.342 242.903,61.781Z" style="fill:rgb(116,120,137);fill-rule:nonzero;"/>
                <path d="M250.289,55.374C250.289,52.49 251.209,50.153 253.048,48.361C254.768,46.688 256.898,45.852 259.437,45.852C261.929,45.852 264.012,46.688 265.685,48.361C267.464,50.141 268.354,52.478 268.354,55.374C268.354,58.257 267.459,60.583 265.667,62.351C263.97,64.035 261.888,64.878 259.42,64.878C256.916,64.878 254.792,64.035 253.048,62.351C251.209,60.583 250.289,58.257 250.289,55.374ZM253.991,55.374C253.991,58.411 254.964,60.476 256.91,61.567C257.598,61.947 258.423,62.137 259.384,62.137C260.345,62.137 261.158,61.944 261.822,61.559C262.487,61.173 263.033,60.666 263.46,60.037C264.255,58.827 264.652,57.272 264.652,55.374C264.652,52.36 263.697,50.295 261.787,49.18C261.122,48.788 260.327,48.592 259.402,48.592C258.476,48.592 257.672,48.785 256.99,49.171C256.308,49.557 255.747,50.064 255.308,50.693C254.43,51.927 253.991,53.487 253.991,55.374Z" style="fill:rgb(116,120,137);fill-rule:nonzero;"/>
                <path d="M276.364,50.799L276.381,64.593L272.822,64.593L272.822,46.225L276.097,46.225L276.346,48.236C277.651,47.145 279.17,46.433 280.902,46.101C281.46,45.994 282.006,45.941 282.54,45.941C284.759,45.941 286.432,46.878 287.559,48.753C289.623,46.878 291.783,45.941 294.037,45.941C296.268,45.941 297.894,46.611 298.914,47.952C299.935,49.316 300.445,51.571 300.445,54.715L300.445,64.593L296.885,64.593L296.885,54.84C296.885,51.755 296.144,49.91 294.66,49.304C294.162,49.103 293.581,49.002 292.916,49.002C291.326,49.002 289.867,49.571 288.538,50.71L288.538,64.593L284.978,64.593L284.978,54.697C284.978,52.585 284.664,51.102 284.035,50.248C283.43,49.417 282.347,49.002 280.787,49.002C279.226,49.002 277.752,49.601 276.364,50.799Z" style="fill:rgb(116,120,137);fill-rule:nonzero;"/>
            </g>
            <g transform="matrix(0.599225,0,0,0.599225,-31.2296,-17.0323)">
                <path d="M209.769,75.493L226.349,75.493C237.402,75.493 244.524,78.767 247.714,85.315C248.861,87.721 249.435,90.575 249.435,93.877C249.435,97.179 248.847,100.006 247.672,102.356C246.497,104.707 244.916,106.638 242.929,108.149C239.067,111.059 233.904,112.514 227.44,112.514L218.164,112.514L218.164,133.921L209.769,133.921L209.769,75.493ZM225.803,105.798C230.868,105.798 234.618,104.819 237.052,102.86C239.487,100.901 240.704,97.851 240.704,93.71C240.704,88.197 238.144,84.643 233.023,83.048C231.232,82.488 229.063,82.209 226.517,82.209L218.164,82.209L218.164,105.798L225.803,105.798Z" style="fill:rgb(188,193,212);fill-rule:nonzero;"/>
                <path d="M267.505,81.684C266.455,82.537 265.147,82.964 263.58,82.964C262.013,82.964 260.719,82.537 259.698,81.684C258.676,80.83 258.165,79.599 258.165,77.99C258.165,76.381 258.676,75.157 259.698,74.317C260.719,73.478 262.013,73.058 263.58,73.058C265.147,73.058 266.455,73.478 267.505,74.317C268.554,75.157 269.079,76.381 269.079,77.99C269.079,79.599 268.554,80.83 267.505,81.684ZM259.257,90.603L267.652,90.603L267.652,133.921L259.257,133.921L259.257,90.603Z" style="fill:rgb(188,193,212);fill-rule:nonzero;"/>
                <path d="M305.47,150.459C303.036,151.074 299.909,151.382 296.089,151.382C292.27,151.382 289.478,151.102 287.715,150.543L287.715,143.071C289.926,144.023 292.633,144.505 295.837,144.519C299.041,144.533 301.399,144.316 302.91,143.869C304.421,143.421 305.61,142.693 306.478,141.686C308.045,139.867 308.828,136.579 308.828,131.822L308.828,129.597C306.702,131.724 303.903,133.207 300.434,134.047C299.034,134.382 297.635,134.55 296.236,134.55C294.837,134.55 293.473,134.396 292.144,134.089C290.814,133.781 289.492,133.284 288.177,132.599C286.862,131.913 285.603,131.018 284.399,129.912C283.196,128.807 282.133,127.429 281.209,125.778C279.139,122.196 278.103,117.789 278.103,112.556C278.047,107.715 279.446,103.461 282.301,99.796C284.763,96.606 288.149,94.129 292.458,92.366C296.376,90.743 300.615,89.932 305.177,89.932C309.738,89.932 313.753,90.156 317.223,90.603L317.223,131.822C317.223,142.288 313.306,148.5 305.47,150.459ZM308.828,96.732C307.037,96.508 305.275,96.396 303.54,96.396C301.805,96.396 299.86,96.718 297.705,97.361C295.551,98.005 293.662,98.984 292.039,100.299C288.485,103.182 286.708,107.267 286.708,112.556C286.708,118.292 288.093,122.476 290.863,125.106C292.934,127.093 295.467,128.086 298.461,128.086C302.07,128.086 305.107,126.813 307.569,124.267C308.157,123.623 308.576,123.049 308.828,122.546L308.828,96.732Z" style="fill:rgb(188,193,212);fill-rule:nonzero;"/>
                <path d="M339.511,101.391L339.553,133.921L331.159,133.921L331.159,90.603L338.882,90.603L339.47,95.347C342.548,92.772 346.129,91.093 350.215,90.31C351.53,90.058 352.817,89.932 354.077,89.932C359.309,89.932 363.255,92.143 365.913,96.564C370.782,92.143 375.875,89.932 381.192,89.932C386.453,89.932 390.286,91.513 392.693,94.675C395.099,97.893 396.303,103.21 396.303,110.625L396.303,133.921L387.908,133.921L387.908,110.919C387.908,103.643 386.159,99.292 382.661,97.865C381.486,97.389 380.115,97.151 378.547,97.151C374.798,97.151 371.356,98.495 368.222,101.181L368.222,133.921L359.827,133.921L359.827,110.583C359.827,105.602 359.085,102.104 357.602,100.09C356.175,98.131 353.622,97.151 349.942,97.151C346.262,97.151 342.785,98.565 339.511,101.391Z" style="fill:rgb(188,193,212);fill-rule:nonzero;"/>
                <path d="M430.008,134.592C414.17,134.592 406.25,126.855 406.25,111.381C406.25,104.721 408.447,99.39 412.84,95.389C416.786,91.751 421.291,89.932 426.356,89.932C431.869,89.932 436.178,91.779 439.284,95.472C442.166,98.914 443.607,103.517 443.607,109.282L443.607,112.556L414.981,112.556C414.981,120.475 418.213,125.316 424.677,127.079C426.216,127.499 428.588,127.709 431.792,127.709C434.996,127.709 438.137,127.275 441.215,126.407L441.215,133.501C438.137,134.229 434.401,134.592 430.008,134.592ZM435.213,106.386C435.213,103.699 434.471,101.433 432.988,99.586C431.253,97.459 428.861,96.396 425.81,96.396C422.592,96.396 419.976,97.417 417.961,99.46C416.114,101.363 415.191,103.671 415.191,106.386L435.213,106.386Z" style="fill:rgb(188,193,212);fill-rule:nonzero;"/>
                <path d="M472.318,97.151C468.148,97.151 464.441,98.565 461.195,101.391L461.195,133.921L452.8,133.921L452.8,90.603L460.565,90.603L461.153,95.305C465.714,91.723 470.429,89.932 475.298,89.932C480.447,89.932 484.225,91.471 486.631,94.549C489.149,97.795 490.409,103.028 490.409,110.247L490.409,133.921L482.014,133.921L482.014,110.247C482.014,103.308 480.139,99.166 476.389,97.823C475.186,97.375 473.829,97.151 472.318,97.151Z" style="fill:rgb(188,193,212);fill-rule:nonzero;"/>
                <path d="M518.531,127.289C519.455,127.625 520.854,127.793 522.729,127.793C524.604,127.793 526.171,127.569 527.43,127.121L527.43,133.837C526.842,133.977 525.989,134.061 524.87,134.089L522.225,134.173C521.638,134.173 521.19,134.173 520.882,134.173C515.481,134.173 511.494,132.41 508.919,128.884C506.849,126.03 505.813,122.252 505.813,117.551L505.813,97.025L499.601,97.025L499.601,93.08L505.813,90.603L507.828,79.858L514.208,79.858L514.208,90.603L527.64,90.603L527.64,97.025L514.208,97.025L514.208,117.509C514.208,122.993 515.649,126.253 518.531,127.289Z" style="fill:rgb(188,193,212);fill-rule:nonzero;"/>
                <path d="M549.382,134.592C545.885,134.592 542.345,134.341 538.763,133.837L538.763,126.407C542.401,127.275 546.094,127.709 549.844,127.709C557.344,127.709 561.093,126.128 561.093,122.966C561.093,121.762 560.799,120.867 560.212,120.279C559.344,119.356 557.973,118.432 556.098,117.509L549.97,114.697C545.997,112.71 543.422,111.115 542.247,109.912C540.036,107.673 538.931,105.015 538.931,101.936C538.931,98.467 540.54,95.64 543.758,93.458C547.228,91.107 552.097,89.932 558.365,89.932C561.527,89.932 564.717,90.156 567.935,90.603L567.935,97.781C564.409,97.137 561.338,96.816 558.722,96.816C556.105,96.816 554.077,96.984 552.635,97.319C551.194,97.655 550.11,98.075 549.382,98.579C548.235,99.362 547.662,100.376 547.662,101.622C547.662,102.867 548.06,103.874 548.858,104.644C549.655,105.413 550.908,106.246 552.614,107.141L558.785,110.121C562.814,112.22 565.403,113.829 566.55,114.948C568.733,117.075 569.824,119.747 569.824,122.966C569.824,126.407 568.089,129.178 564.619,131.276C560.981,133.487 555.902,134.592 549.382,134.592Z" style="fill:rgb(188,193,212);fill-rule:nonzero;"/>
            </g>
        </g>
    </g>
    <defs>
        <linearGradient id="_Linear1" x1="0" y1="0" x2="1" y2="0" gradientUnits="userSpaceOnUse" gradientTransform="matrix(-179.448,180.234,-180.234,-179.448,159.455,110.69)"><stop offset="0%" style="stop-color:rgb(255,102,102);stop-opacity:1"/><stop offset="28%" style="stop-color:rgb(255,105,254);stop-opacity:1"/><stop offset="40%" style="stop-color:rgb(103,102,254);stop-opacity:1"/><stop offset="50%" style="stop-color:rgb(0,255,254);stop-opacity:1"/><stop offset="66%" style="stop-color:rgb(0,255,1);stop-opacity:1"/><stop offset="82%" style="stop-color:rgb(255,255,0);stop-opacity:1"/><stop offset="100%" style="stop-color:rgb(255,0,0);stop-opacity:1"/></linearGradient>
        <linearGradient id="_Linear2" x1="0" y1="0" x2="1" y2="0" gradientUnits="userSpaceOnUse" gradientTransform="matrix(-4.6001,103.43,-103.43,-4.6001,155.381,14.9778)"><stop offset="0%" style="stop-color:rgb(255,0,0);stop-opacity:1"/><stop offset="16%" style="stop-color:rgb(255,0,254);stop-opacity:1"/><stop offset="21%" style="stop-color:rgb(1,0,255);stop-opacity:1"/><stop offset="27%" style="stop-color:rgb(0,255,254);stop-opacity:1"/><stop offset="32%" style="stop-color:rgb(0,255,1);stop-opacity:1"/><stop offset="56%" style="stop-color:rgb(255,255,101);stop-opacity:1"/><stop offset="100%" style="stop-color:rgb(255,105,105);stop-opacity:1"/></linearGradient>
        <linearGradient id="_Linear3" x1="0" y1="0" x2="1" y2="0" gradientUnits="userSpaceOnUse" gradientTransform="matrix(169.843,11.887,-11.887,169.843,25.4244,43.8386)"><stop offset="0%" style="stop-color:rgb(255,0,0);stop-opacity:1"/><stop offset="16%" style="stop-color:rgb(255,0,254);stop-opacity:1"/><stop offset="22%" style="stop-color:rgb(1,0,255);stop-opacity:1"/><stop offset="27%" style="stop-color:rgb(0,255,254);stop-opacity:1"/><stop offset="32%" style="stop-color:rgb(110,246,110);stop-opacity:1"/><stop offset="74%" style="stop-color:rgb(249,249,108);stop-opacity:1"/><stop offset="100%" style="stop-color:rgb(255,100,100);stop-opacity:1"/></linearGradient>
        <linearGradient id="_Linear4" x1="0" y1="0" x2="1" y2="0" gradientUnits="userSpaceOnUse" gradientTransform="matrix(118.826,-122.626,122.626,118.826,5.09626,159.529)"><stop offset="0%" style="stop-color:rgb(255,105,105);stop-opacity:1"/><stop offset="16%" style="stop-color:rgb(255,0,254);stop-opacity:1"/><stop offset="25%" style="stop-color:rgb(1,0,255);stop-opacity:1"/><stop offset="40%" style="stop-color:rgb(102,255,255);stop-opacity:1"/><stop offset="65%" style="stop-color:rgb(111,254,112);stop-opacity:1"/><stop offset="91%" style="stop-color:rgb(255,255,101);stop-opacity:1"/><stop offset="100%" style="stop-color:rgb(255,0,0);stop-opacity:1"/></linearGradient>
        <linearGradient id="_Linear5" x1="0" y1="0" x2="1" y2="0" gradientUnits="userSpaceOnUse" gradientTransform="matrix(-15.0913,-150.402,150.402,-15.0913,50.0386,192.438)"><stop offset="0%" style="stop-color:rgb(255,0,0);stop-opacity:1"/><stop offset="6%" style="stop-color:rgb(255,0,254);stop-opacity:1"/><stop offset="16%" style="stop-color:rgb(106,105,255);stop-opacity:1"/><stop offset="54%" style="stop-color:rgb(113,244,243);stop-opacity:1"/><stop offset="78%" style="stop-color:rgb(106,253,107);stop-opacity:1"/><stop offset="84%" style="stop-color:rgb(255,255,0);stop-opacity:1"/><stop offset="100%" style="stop-color:rgb(255,0,0);stop-opacity:1"/></linearGradient>
        <linearGradient id="_Linear6" x1="0" y1="0" x2="1" y2="0" gradientUnits="userSpaceOnUse" gradientTransform="matrix(-235.993,-64.9194,64.9194,-235.993,158.832,142.227)"><stop offset="0%" style="stop-color:rgb(255,104,104);stop-opacity:1"/><stop offset="17%" style="stop-color:rgb(255,104,254);stop-opacity:1"/><stop offset="38%" style="stop-color:rgb(100,99,255);stop-opacity:1"/><stop offset="49%" style="stop-color:rgb(104,255,255);stop-opacity:1"/><stop offset="66%" style="stop-color:rgb(0,255,1);stop-opacity:1"/><stop offset="82%" style="stop-color:rgb(255,255,0);stop-opacity:1"/><stop offset="100%" style="stop-color:rgb(255,0,0);stop-opacity:1"/></linearGradient>
    </defs>
</svg>
