<?xml version="1.0" standalone="no"?>
<!DOCTYPE svg PUBLIC "-//W3C//DTD SVG 1.1//EN" "http://www.w3.org/Graphics/SVG/1.1/DTD/svg11.dtd">
<svg width="600px" height="210px" version="1.1" xmlns="http://www.w3.org/2000/svg" xmlns:xlink="http://www.w3.org/1999/xlink" xml:space="preserve" style="fill-rule:evenodd;clip-rule:evenodd;stroke-linejoin:round;stroke-miterlimit:1.41421;">
    <g>
        <g>
            <g>
                <path d="M137.773,106.526L139.643,106.658C139.643,106.658 150.799,125.743 154.114,141.836C156.838,155.067 156.506,162.691 147.698,166.989C138.891,171.287 130.435,169.36 122.109,165.889C118.179,164.251 111.695,149.267 111.695,149.267C111.695,149.267 123.187,154.891 131.654,154.119C140.122,153.346 144.012,153.726 147.018,148.265C150.024,142.804 149.95,135.459 147.535,129.072C145.12,122.685 137.773,106.526 137.773,106.526Z" style="fill:url(#tag1);"/>
            </g>
            <g>
                <path d="M115.474,80.5536C115.474,80.5536 130.865,80.236 138.714,82.0505C147.496,84.0806 156.032,86.9575 160.075,91.9038C162.061,94.3328 162.529,97.5004 161.701,101.904C160.886,106.243 158.059,109.592 154.21,112.906C150.36,116.22 135.926,125.493 135.926,125.493C135.926,125.493 146.746,125.418 149.869,124.756C155.925,123.473 166.909,120.38 175.157,111.923C182.142,104.761 181.443,94.368 174.181,89.2052C161.405,80.1231 146.32,79.5116 138.546,78.5173C130.773,77.523 115.147,78.9205 115.147,78.9205L115.474,80.5536Z" style="fill:url(#tag2);"/>
            </g>
            <g>
                <path d="M83.1015,86.9449C83.1015,86.9449 99.5639,60.9767 105.955,54.3294C112.346,47.6821 119.478,39.5465 130.061,40.5236C140.643,41.5007 145.01,46.2979 148.889,52.3436C152.769,58.3893 153.395,66.5514 152.332,70.0679C151.27,73.5843 140.192,85.8601 140.192,85.8601L144.144,78.7455L139.1,76.0913C139.1,76.0913 138.962,66.4595 136.036,61.8354C133.111,57.2112 130.338,53.2827 122.033,54.5089C113.728,55.7351 103.954,61.6559 99.1571,67.2945C94.3605,72.9331 83.1015,86.9449 83.1015,86.9449Z" style="fill:url(#tag3);"/>
            </g>
            <g>
                <path d="M70.9421,102.867C70.9421,102.867 64.2649,90.1247 59.396,78.5981C53.8737,65.5246 52.9575,49.9803 62.4264,44.8375C71.4102,39.9581 79.3536,42.5835 84.7298,43.9734C88.9343,45.0604 92.1534,47.3477 93.4212,49.9675C94.689,52.5873 94.7342,60.3691 94.7342,60.3691C94.7342,60.3691 83.8251,55.3817 77.0995,55.8756C70.374,56.3696 64.4056,60.0144 64.1146,67.7114C63.8321,75.185 65.1076,82.9238 67.1479,89.9366C69.1638,96.8652 71.8953,101.841 71.8953,101.841L70.9421,102.867Z" style="fill:url(#tag4);"/>
            </g>
            <g>
                <path d="M104.365,132.226C104.365,132.226 78.6226,136.179 55.6807,133.919C50.1014,133.369 34.7046,129.499 30.9539,119.221C26.6537,107.438 32.6595,101.66 36.3859,98.5422C40.6129,95.006 50.9293,89.2957 55.0137,89.9846C59.5363,90.7475 66.3066,96.2578 66.3066,96.2578C66.3066,96.2578 52.2189,100.485 48.4529,108.449C46.7584,112.032 47.8134,115.42 51.0374,118.923C55.2345,123.484 63.5489,126.533 73.52,129.392C83.4912,132.25 104.365,132.226 104.365,132.226Z" style="fill:url(#tag5);"/>
            </g>
            <g>
                <path d="M121.977,124.025L121.89,126.619C121.89,126.619 105.776,154.372 93.6723,162.067C81.5684,169.762 72.7184,172.69 66.5607,167.641C59.6477,161.973 56.847,154.035 57.162,149.259C57.7747,139.971 60.8542,130.353 60.8542,130.353C60.8542,130.353 61.9021,143.463 71.8588,150.068C81.8156,156.673 83.5471,158.263 91.3719,155.397C99.1967,152.532 108.549,144.153 111.337,140.36C114.124,136.566 121.977,124.025 121.977,124.025Z" style="fill:url(#tag6);"/>
            </g>
            <g>
                <path d="M112.008,104.355C112.008,104.355 113.947,109.486 110.548,111.91C107.149,114.333 101.743,115.303 100.121,112.666C98.4988,110.028 97.623,106.315 99.2017,102.321C100.78,98.3262 104.223,96.8169 106.411,96.9165C108.598,97.0162 108.454,97.0456 109.431,99.2699C110.408,101.494 111.471,101.952 109.445,103.311C107.419,104.671 105.917,104.908 106.457,106.344C106.998,107.78 108.054,108.838 109.045,108.032C110.036,107.227 110.981,104.944 110.966,104.507C110.952,104.07 112.008,104.355 112.008,104.355Z" style="fill:rgb(188,193,212);"/>
            </g>
        </g>
        <g>
            <path d="M220.174,39.8178L222.613,39.8178L233.06,64.5931L229.358,64.5931L226.849,58.3637L215.849,58.3637L213.358,64.5931L209.727,64.5931L220.174,39.8178ZM225.71,55.516L221.367,44.659L217.006,55.516L225.71,55.516Z" style="fill:rgb(116,120,137);fill-rule:nonzero;"/>
            <path d="M242.903,61.781C243.294,61.9234 243.888,61.9946 244.683,61.9946C245.478,61.9946 246.142,61.8996 246.676,61.7098L246.676,64.5575C246.427,64.6168 246.065,64.6524 245.59,64.6643L244.469,64.6999C244.22,64.6999 244.03,64.6999 243.899,64.6999C241.609,64.6999 239.919,63.9524 238.827,62.4573C237.949,61.247 237.51,59.6452 237.51,57.6518L237.51,48.9484L234.876,48.9484L234.876,47.2753L237.51,46.2252L238.364,41.6689L241.07,41.6689L241.07,46.2252L246.765,46.2252L246.765,48.9484L241.07,48.9484L241.07,57.634C241.07,59.9596 241.681,61.342 242.903,61.781Z" style="fill:rgb(116,120,137);fill-rule:nonzero;"/>
            <path d="M250.289,55.3736C250.289,52.4902 251.209,50.1527 253.048,48.361C254.768,46.688 256.898,45.8515 259.437,45.8515C261.929,45.8515 264.012,46.688 265.685,48.361C267.464,50.1409 268.354,52.4784 268.354,55.3736C268.354,58.2569 267.459,60.5826 265.667,62.3505C263.97,64.0354 261.888,64.8779 259.42,64.8779C256.916,64.8779 254.792,64.0354 253.048,62.3505C251.209,60.5826 250.289,58.2569 250.289,55.3736ZM253.991,55.3736C253.991,58.4112 254.964,60.4758 256.91,61.5674C257.598,61.9471 258.423,62.1369 259.384,62.1369C260.345,62.1369 261.158,61.9441 261.822,61.5585C262.487,61.1729 263.033,60.6656 263.46,60.0367C264.255,58.8265 264.652,57.2721 264.652,55.3736C264.652,52.3597 263.697,50.2951 261.787,49.1798C261.122,48.7882 260.327,48.5924 259.402,48.5924C258.476,48.5924 257.672,48.7852 256.99,49.1709C256.308,49.5565 255.747,50.0637 255.308,50.6926C254.43,51.9266 253.991,53.487 253.991,55.3736Z" style="fill:rgb(116,120,137);fill-rule:nonzero;"/>
            <path d="M276.364,50.7994L276.381,64.5931L272.822,64.5931L272.822,46.2252L276.097,46.2252L276.346,48.2364C277.651,47.1448 279.17,46.4329 280.902,46.1006C281.46,45.9939 282.006,45.9405 282.54,45.9405C284.759,45.9405 286.432,46.8778 287.559,48.7526C289.623,46.8778 291.783,45.9405 294.037,45.9405C296.268,45.9405 297.894,46.6109 298.914,47.9517C299.935,49.3162 300.445,51.5707 300.445,54.715L300.445,64.5931L296.885,64.5931L296.885,54.8396C296.885,51.7546 296.144,49.9095 294.66,49.3043C294.162,49.1026 293.581,49.0018 292.916,49.0018C291.326,49.0018 289.867,49.5713 288.538,50.7104L288.538,64.5931L284.978,64.5931L284.978,54.6972C284.978,52.5852 284.664,51.102 284.035,50.2477C283.43,49.4171 282.347,49.0018 280.787,49.0018C279.226,49.0018 277.752,49.601 276.364,50.7994Z" style="fill:rgb(116,120,137);fill-rule:nonzero;"/>
        </g>
        <g>
            <path d="M209.769,75.4927L226.349,75.4927C237.402,75.4927 244.524,78.7667 247.714,85.3146C248.861,87.7212 249.435,90.5754 249.435,93.8774C249.435,97.1794 248.847,100.006 247.672,102.356C246.497,104.707 244.916,106.638 242.929,108.149C239.067,111.059 233.904,112.514 227.44,112.514L218.164,112.514L218.164,133.921L209.769,133.921L209.769,75.4927ZM225.803,105.798C230.868,105.798 234.618,104.819 237.052,102.86C239.487,100.901 240.704,97.8509 240.704,93.7095C240.704,88.1969 238.144,84.6431 233.023,83.048C231.232,82.4884 229.063,82.2086 226.517,82.2086L218.164,82.2086L218.164,105.798L225.803,105.798Z" style="fill:rgb(188,193,212);fill-rule:nonzero;"/>
            <path d="M267.505,81.6839C266.455,82.5374 265.147,82.9641 263.58,82.9641C262.013,82.9641 260.719,82.5374 259.698,81.6839C258.676,80.8304 258.165,79.5992 258.165,77.9902C258.165,76.3811 258.676,75.1569 259.698,74.3174C260.719,73.4779 262.013,73.0582 263.58,73.0582C265.147,73.0582 266.455,73.4779 267.505,74.3174C268.554,75.1569 269.079,76.3811 269.079,77.9902C269.079,79.5992 268.554,80.8304 267.505,81.6839ZM259.257,90.6034L267.652,90.6034L267.652,133.921L259.257,133.921L259.257,90.6034Z" style="fill:rgb(188,193,212);fill-rule:nonzero;"/>
            <path d="M305.47,150.459C303.036,151.074 299.909,151.382 296.089,151.382C292.27,151.382 289.478,151.102 287.715,150.543L287.715,143.071C289.926,144.023 292.633,144.505 295.837,144.519C299.041,144.533 301.399,144.316 302.91,143.869C304.421,143.421 305.61,142.693 306.478,141.686C308.045,139.867 308.828,136.579 308.828,131.822L308.828,129.597C306.702,131.724 303.903,133.207 300.434,134.047C299.034,134.382 297.635,134.55 296.236,134.55C294.837,134.55 293.473,134.396 292.144,134.089C290.814,133.781 289.492,133.284 288.177,132.599C286.862,131.913 285.603,131.018 284.399,129.912C283.196,128.807 282.133,127.429 281.209,125.778C279.139,122.196 278.103,117.789 278.103,112.556C278.047,107.715 279.446,103.461 282.301,99.7957C284.763,96.6057 288.149,94.1292 292.458,92.3663C296.376,90.7433 300.615,89.9318 305.177,89.9318C309.738,89.9318 313.753,90.1557 317.223,90.6034L317.223,131.822C317.223,142.288 313.306,148.5 305.47,150.459ZM308.828,96.7316C307.037,96.5078 305.275,96.3958 303.54,96.3958C301.805,96.3958 299.86,96.7176 297.705,97.3612C295.551,98.0048 293.662,98.9842 292.039,100.299C288.485,103.182 286.708,107.267 286.708,112.556C286.708,118.292 288.093,122.476 290.863,125.106C292.934,127.093 295.467,128.086 298.461,128.086C302.07,128.086 305.107,126.813 307.569,124.267C308.157,123.623 308.576,123.049 308.828,122.546L308.828,96.7316Z" style="fill:rgb(188,193,212);fill-rule:nonzero;"/>
            <path d="M339.511,101.391L339.553,133.921L331.159,133.921L331.159,90.6034L338.882,90.6034L339.47,95.3465C342.548,92.7721 346.129,91.0931 350.215,90.3096C351.53,90.0577 352.817,89.9318 354.077,89.9318C359.309,89.9318 363.255,92.1425 365.913,96.5637C370.782,92.1425 375.875,89.9318 381.192,89.9318C386.453,89.9318 390.286,91.5128 392.693,94.6749C395.099,97.8929 396.303,103.21 396.303,110.625L396.303,133.921L387.908,133.921L387.908,110.919C387.908,103.643 386.159,99.2921 382.661,97.8649C381.486,97.3892 380.115,97.1514 378.547,97.1514C374.798,97.1514 371.356,98.4945 368.222,101.181L368.222,133.921L359.827,133.921L359.827,110.583C359.827,105.602 359.085,102.104 357.602,100.09C356.175,98.1308 353.622,97.1514 349.942,97.1514C346.262,97.1514 342.785,98.5645 339.511,101.391Z" style="fill:rgb(188,193,212);fill-rule:nonzero;"/>
            <path d="M430.008,134.592C414.17,134.592 406.25,126.855 406.25,111.381C406.25,104.721 408.447,99.39 412.84,95.3885C416.786,91.7507 421.291,89.9318 426.356,89.9318C431.869,89.9318 436.178,91.7787 439.284,95.4724C442.166,98.9143 443.607,103.517 443.607,109.282L443.607,112.556L414.981,112.556C414.981,120.475 418.213,125.316 424.677,127.079C426.216,127.499 428.588,127.709 431.792,127.709C434.996,127.709 438.137,127.275 441.215,126.407L441.215,133.501C438.137,134.229 434.401,134.592 430.008,134.592ZM435.213,106.386C435.213,103.699 434.471,101.433 432.988,99.5859C431.253,97.4592 428.861,96.3958 425.81,96.3958C422.592,96.3958 419.976,97.4172 417.961,99.46C416.114,101.363 415.191,103.671 415.191,106.386L435.213,106.386Z" style="fill:rgb(188,193,212);fill-rule:nonzero;"/>
            <path d="M472.318,97.1514C468.148,97.1514 464.441,98.5645 461.195,101.391L461.195,133.921L452.8,133.921L452.8,90.6034L460.565,90.6034L461.153,95.3045C465.714,91.7227 470.429,89.9318 475.298,89.9318C480.447,89.9318 484.225,91.4709 486.631,94.549C489.149,97.795 490.409,103.028 490.409,110.247L490.409,133.921L482.014,133.921L482.014,110.247C482.014,103.308 480.139,99.1661 476.389,97.823C475.186,97.3752 473.829,97.1514 472.318,97.1514Z" style="fill:rgb(188,193,212);fill-rule:nonzero;"/>
            <path d="M518.531,127.289C519.455,127.625 520.854,127.793 522.729,127.793C524.604,127.793 526.171,127.569 527.43,127.121L527.43,133.837C526.842,133.977 525.989,134.061 524.87,134.089L522.225,134.173C521.638,134.173 521.19,134.173 520.882,134.173C515.481,134.173 511.494,132.41 508.919,128.884C506.849,126.03 505.813,122.252 505.813,117.551L505.813,97.0254L499.601,97.0254L499.601,93.0799L505.813,90.6034L507.828,79.858L514.208,79.858L514.208,90.6034L527.64,90.6034L527.64,97.0254L514.208,97.0254L514.208,117.509C514.208,122.993 515.649,126.253 518.531,127.289Z" style="fill:rgb(188,193,212);fill-rule:nonzero;"/>
            <path d="M549.382,134.592C545.885,134.592 542.345,134.341 538.763,133.837L538.763,126.407C542.401,127.275 546.094,127.709 549.844,127.709C557.344,127.709 561.093,126.128 561.093,122.966C561.093,121.762 560.799,120.867 560.212,120.279C559.344,119.356 557.973,118.432 556.098,117.509L549.97,114.697C545.997,112.71 543.422,111.115 542.247,109.912C540.036,107.673 538.931,105.015 538.931,101.936C538.931,98.4666 540.54,95.6403 543.758,93.4576C547.228,91.1071 552.097,89.9318 558.365,89.9318C561.527,89.9318 564.717,90.1557 567.935,90.6034L567.935,97.781C564.409,97.1374 561.338,96.8156 558.722,96.8156C556.105,96.8156 554.077,96.9835 552.635,97.3193C551.194,97.6551 550.11,98.0748 549.382,98.5785C548.235,99.362 547.662,100.376 547.662,101.622C547.662,102.867 548.06,103.874 548.858,104.644C549.655,105.413 550.908,106.246 552.614,107.141L558.785,110.121C562.814,112.22 565.403,113.829 566.55,114.948C568.733,117.075 569.824,119.747 569.824,122.966C569.824,126.407 568.089,129.178 564.619,131.276C560.981,133.487 555.902,134.592 549.382,134.592Z" style="fill:rgb(188,193,212);fill-rule:nonzero;"/>
        </g>
    </g>
    <defs>
        <linearGradient id="tag1" x1="0" y1="0" x2="1" y2="0" gradientUnits="userSpaceOnUse" gradientTransform="matrix(-179.448,180.234,-180.234,-179.448,159.455,110.69)"><stop offset="0%" style="stop-color:rgb(255,102,102);stop-opacity:1"/><stop offset="28%" style="stop-color:rgb(255,105,254);stop-opacity:1"/><stop offset="40%" style="stop-color:rgb(103,102,254);stop-opacity:1"/><stop offset="50%" style="stop-color:rgb(0,255,254);stop-opacity:1"/><stop offset="66%" style="stop-color:rgb(0,255,1);stop-opacity:1"/><stop offset="82%" style="stop-color:rgb(255,255,0);stop-opacity:1"/><stop offset="100%" style="stop-color:rgb(255,0,0);stop-opacity:1"/></linearGradient>
        <linearGradient id="tag2" x1="0" y1="0" x2="1" y2="0" gradientUnits="userSpaceOnUse" gradientTransform="matrix(-4.6001,103.43,-103.43,-4.6001,155.381,14.9778)"><stop offset="0%" style="stop-color:rgb(255,0,0);stop-opacity:1"/><stop offset="16%" style="stop-color:rgb(255,0,254);stop-opacity:1"/><stop offset="21%" style="stop-color:rgb(1,0,255);stop-opacity:1"/><stop offset="27%" style="stop-color:rgb(0,255,254);stop-opacity:1"/><stop offset="32%" style="stop-color:rgb(0,255,1);stop-opacity:1"/><stop offset="56%" style="stop-color:rgb(255,255,101);stop-opacity:1"/><stop offset="100%" style="stop-color:rgb(255,105,105);stop-opacity:1"/></linearGradient>
        <linearGradient id="tag3" x1="0" y1="0" x2="1" y2="0" gradientUnits="userSpaceOnUse" gradientTransform="matrix(169.843,11.887,-11.887,169.843,25.4244,43.8386)"><stop offset="0%" style="stop-color:rgb(255,0,0);stop-opacity:1"/><stop offset="16%" style="stop-color:rgb(255,0,254);stop-opacity:1"/><stop offset="22%" style="stop-color:rgb(1,0,255);stop-opacity:1"/><stop offset="27%" style="stop-color:rgb(0,255,254);stop-opacity:1"/><stop offset="32%" style="stop-color:rgb(110,246,110);stop-opacity:1"/><stop offset="74%" style="stop-color:rgb(249,249,108);stop-opacity:1"/><stop offset="100%" style="stop-color:rgb(255,100,100);stop-opacity:1"/></linearGradient>
        <linearGradient id="tag4" x1="0" y1="0" x2="1" y2="0" gradientUnits="userSpaceOnUse" gradientTransform="matrix(118.826,-122.626,122.626,118.826,5.09626,159.529)"><stop offset="0%" style="stop-color:rgb(255,105,105);stop-opacity:1"/><stop offset="16%" style="stop-color:rgb(255,0,254);stop-opacity:1"/><stop offset="25%" style="stop-color:rgb(1,0,255);stop-opacity:1"/><stop offset="40%" style="stop-color:rgb(102,255,255);stop-opacity:1"/><stop offset="65%" style="stop-color:rgb(111,254,112);stop-opacity:1"/><stop offset="91%" style="stop-color:rgb(255,255,101);stop-opacity:1"/><stop offset="100%" style="stop-color:rgb(255,0,0);stop-opacity:1"/></linearGradient>
        <linearGradient id="tag5" x1="0" y1="0" x2="1" y2="0" gradientUnits="userSpaceOnUse" gradientTransform="matrix(-15.0913,-150.402,150.402,-15.0913,50.0386,192.438)"><stop offset="0%" style="stop-color:rgb(255,0,0);stop-opacity:1"/><stop offset="6%" style="stop-color:rgb(255,0,254);stop-opacity:1"/><stop offset="16%" style="stop-color:rgb(106,105,255);stop-opacity:1"/><stop offset="54%" style="stop-color:rgb(113,244,243);stop-opacity:1"/><stop offset="78%" style="stop-color:rgb(106,253,107);stop-opacity:1"/><stop offset="84%" style="stop-color:rgb(255,255,0);stop-opacity:1"/><stop offset="100%" style="stop-color:rgb(255,0,0);stop-opacity:1"/></linearGradient>
        <linearGradient id="tag6" x1="0" y1="0" x2="1" y2="0" gradientUnits="userSpaceOnUse" gradientTransform="matrix(-235.993,-64.9194,72.4391,-211.496,158.832,142.227)"><stop offset="0%" style="stop-color:rgb(255,104,104);stop-opacity:1"/><stop offset="17%" style="stop-color:rgb(255,104,254);stop-opacity:1"/><stop offset="38%" style="stop-color:rgb(100,99,255);stop-opacity:1"/><stop offset="49%" style="stop-color:rgb(104,255,255);stop-opacity:1"/><stop offset="66%" style="stop-color:rgb(0,255,1);stop-opacity:1"/><stop offset="82%" style="stop-color:rgb(255,255,0);stop-opacity:1"/><stop offset="100%" style="stop-color:rgb(255,0,0);stop-opacity:1"/></linearGradient>
    </defs>
</svg>
